<?xml version="1.0" encoding="UTF-8"?>
<!DOCTYPE svg PUBLIC "-//W3C//DTD SVG 1.1//EN" "http://www.w3.org/Graphics/SVG/1.1/DTD/svg11.dtd">
<!-- Creator: CorelDRAW X7 -->
<svg xmlns="http://www.w3.org/2000/svg" xml:space="preserve" width="1.61309in" height="1.62516in" version="1.1" style="shape-rendering:geometricPrecision; text-rendering:geometricPrecision; image-rendering:optimizeQuality; fill-rule:evenodd; clip-rule:evenodd"
viewBox="0 0 1613 1625"
 xmlns:xlink="http://www.w3.org/1999/xlink">
 <defs>
  <style type="text/css">
   <![CDATA[
    .fil0 {fill:url(#id0);fill-rule:nonzero}
    .fil1 {fill:url(#id1);fill-rule:nonzero}
   ]]>
  </style>
  <linearGradient id="id0" gradientUnits="userSpaceOnUse" x1="101.583" y1="1167.07" x2="1109.66" y2="458.091">
   <stop offset="0" style="stop-opacity:1; stop-color:#105F99"/>
   <stop offset="1" style="stop-opacity:1; stop-color:#03EDFF"/>
  </linearGradient>
  <linearGradient id="id1" gradientUnits="userSpaceOnUse" xlink:href="#id0" x1="400.606" y1="1188.75" x2="1470.35" y2="436.409">
  </linearGradient>
 </defs>
 <g id="Layer_x0020_2">
  <metadata id="CorelCorpID_0Corel-Layer"/>
  <path class="fil0" d="M1131 403l-972 0 0 -403 -159 0 0 1417 0 208 208 0 1003 0 -91 -158 -912 0 -49 0 0 -50 0 -856 972 0c44,0 79,-35 79,-79 0,-44 -35,-79 -79,-79z"/>
 </g>
 <g id="Layer_x0020_3">
  <metadata id="CorelCorpID_1Corel-Layer"/>
  <path class="fil1" d="M562 965l336 0 28 0 14 23c135,217 261,422 385,637l195 0 -366 -589 -40 -66 77 -9c54,-7 105,-23 151,-45 48,-24 92,-55 130,-93l0 0c44,-45 80,-98 105,-157 23,-56 36,-119 36,-184 0,-65 -13,-127 -36,-184 -25,-59 -61,-112 -105,-156 -45,-45 -98,-81 -157,-105 -57,-24 -119,-37 -184,-37l-873 0 0 159 873 0c43,0 85,8 123,24 40,17 75,41 105,71l0 0c30,30 54,65 71,105 16,38 25,80 25,123 0,44 -9,85 -25,124 -17,39 -41,75 -71,104l0 1c-30,30 -65,54 -105,70 -38,16 -80,25 -123,25l-147 0 -260 0 -34 0 -128 0 -159 0 0 159 0 402 159 0 0 -402z"/>
 </g>
</svg>
