<?xml version="1.0" encoding="utf-8"?>
<!-- Generator: Adobe Illustrator 21.0.0, SVG Export Plug-In . SVG Version: 6.00 Build 0)  -->
<svg version="1.1" id="Layer_1" xmlns="http://www.w3.org/2000/svg" xmlns:xlink="http://www.w3.org/1999/xlink" x="0px" y="0px"
	 viewBox="0 0 512 512" style="enable-background:new 0 0 512 512;" xml:space="preserve">
<g>
	<path d="M256,13.6c-71.7,0-169.4,1.1-189.3,2.9C44.5,29.8,0.4,80.4,0,93.5v22c0,27.8,26.1,52.3,49.7,52.3
		c28.3,0,51.9-23.6,51.9-51.4c0,27.8,22.9,51.4,51.2,51.4c28.5,0,50.5-23.6,50.5-51.4c0,27.8,24,51.4,52.5,51.4h0.5
		c28.5,0,52.5-23.6,52.5-51.4c0,27.8,22.3,51.4,50.5,51.4s51.2-23.6,51.2-51.4c0,27.8,23.6,51.4,51.9,51.4
		c23.6,0,49.6-24.5,49.6-52.3v-22c-0.4-13.1-44.5-63.7-66.8-77C376,14,327.7,13.6,256,13.6z M202,162.2
		c-23.2,39.9-81.5,40.4-104.3,0.3c-13.9,24.1-45.3,33.4-58.8,28.8c-3.9,41.8-6.6,256.7,21.9,292.7c83.7,19.5,308.9,19.1,390.2,0
		c32.9-33.6,25.6-253.9,21.9-292.7c-13.4,4.6-44.9-4.7-58.5-28.8c-23,40.1-81.3,39.6-104.5-0.3c-7.2,13-23.8,30.1-54,30.1
		C233.9,193.2,213.1,181.2,202,162.2z M155.1,211.9c17.6,0,33.7,0,53.1,21.6c32-3.3,63.7-3.3,95.6,0c19.6-21.4,35.5-21.4,53.1-21.4
		c56.9,0,70.5,84,91,156.2c18.5,67.2-6.2,69-36.8,69c-45.6-1.8-70.9-34.8-70.9-68.1c-42.5,7-110.4,9.7-168.4,0
		c0,33.3-25.3,66.3-70.9,68.1c-30.6,0-55.4-1.8-36.8-69c20.5-72.7,34.2-156.2,91-156.2V211.9z M256,275.3c0,0-37.3,34.4-44.1,46.4
		l24.4-0.9v21.3l19.7,0.2c9.8,0.4,19.7,0.7,19.7-0.2v-21.3l24.4,0.9C293.4,309.7,256,275.3,256,275.3z"/>
</g>
</svg>
